<?xml version="1.0" encoding="UTF-8" standalone="no"?>
<!DOCTYPE svg PUBLIC "-//W3C//DTD SVG 20010904//EN"
              "http://www.w3.org/TR/2001/REC-SVG-20010904/DTD/svg10.dtd">

<svg xmlns="http://www.w3.org/2000/svg"
     width="7.11111in" height="7.11111in"
     viewBox="0 0 512 512">
  <path id="Selection #2"
        fill="none" stroke="black" stroke-width="1"
        d="M 294.00,158.00
           C 294.22,149.20 298.13,144.76 301.69,137.00
             301.69,137.00 321.86,94.00 321.86,94.00
             323.19,91.02 328.47,79.51 330.63,77.99
             332.43,76.74 335.86,77.01 338.00,77.00
             337.53,85.36 331.87,93.77 327.86,101.00
             327.86,101.00 307.58,140.00 307.58,140.00
             306.22,143.12 300.61,155.44 298.37,157.01
             296.99,157.97 295.57,157.88 294.00,158.00 Z
           M 214.00,177.00
           C 212.23,176.85 210.92,176.93 209.30,175.98
             206.40,174.29 199.13,163.35 196.63,160.00
             196.63,160.00 157.87,107.00 157.87,107.00
             157.87,107.00 146.26,91.00 146.26,91.00
             145.07,89.09 143.37,85.88 145.01,83.74
             146.95,81.20 150.44,82.54 152.33,84.31
             152.33,84.31 165.87,102.00 165.87,102.00
             165.87,102.00 183.74,126.00 183.74,126.00
             186.38,130.24 185.53,131.49 187.30,135.00
             187.30,135.00 197.88,150.00 197.88,150.00
             203.31,157.36 213.46,167.88 214.00,177.00 Z
           M 110.00,89.00
           C 117.70,89.27 118.70,92.24 123.39,98.00
             123.39,98.00 143.80,123.00 143.80,123.00
             148.29,128.55 151.47,130.61 152.00,138.00
             145.18,137.44 143.76,134.10 139.61,129.00
             139.61,129.00 118.39,103.00 118.39,103.00
             114.38,98.07 110.48,95.49 110.00,89.00 Z
           M 166.00,197.00
           C 166.00,197.00 171.00,197.00 171.00,197.00
             171.00,197.00 171.00,202.00 171.00,202.00
             171.00,202.00 166.00,202.00 166.00,202.00
             166.00,202.00 166.00,197.00 166.00,197.00 Z
           M 175.00,197.00
           C 175.00,197.00 180.00,197.00 180.00,197.00
             180.00,197.00 180.00,202.00 180.00,202.00
             180.00,202.00 175.00,202.00 175.00,202.00
             175.00,202.00 175.00,197.00 175.00,197.00 Z
           M 156.00,204.00
           C 156.42,198.94 156.94,198.42 162.00,198.00
             162.00,198.00 162.00,204.00 162.00,204.00
             162.00,204.00 156.00,204.00 156.00,204.00 Z
           M 147.00,202.00
           C 147.00,202.00 152.00,202.00 152.00,202.00
             152.00,202.00 152.00,207.00 152.00,207.00
             152.00,207.00 147.00,207.00 147.00,207.00
             147.00,207.00 147.00,202.00 147.00,202.00 Z
           M 349.00,287.00
           C 349.00,287.00 350.60,281.92 350.60,281.92
             350.60,281.92 358.00,278.14 358.00,278.14
             358.00,278.14 375.00,270.00 375.00,270.00
             374.86,271.67 374.93,273.11 373.98,274.61
             372.76,276.53 369.02,278.42 367.00,279.58
             360.61,283.26 356.54,286.58 349.00,287.00 Z
           M 149.00,271.00
           C 155.72,272.37 160.28,276.78 166.00,280.29
             171.73,283.81 173.45,282.42 174.00,289.00
             166.19,288.55 163.16,285.02 157.00,280.72
             152.10,277.31 149.50,277.25 149.00,271.00 Z
           M 250.00,338.00
           C 250.00,338.00 255.00,338.00 255.00,338.00
             255.00,338.00 255.00,366.00 255.00,366.00
             255.00,366.00 257.00,383.00 257.00,383.00
             257.00,383.00 256.00,417.00 256.00,417.00
             256.00,417.00 276.00,400.25 276.00,400.25
             281.43,395.73 283.70,392.52 291.00,392.00
             290.44,398.90 287.09,400.17 282.00,404.41
             277.84,407.88 260.48,422.74 257.00,424.15
             254.93,424.98 253.17,424.93 251.00,425.00
             251.00,425.00 251.00,402.00 251.00,402.00
             251.00,402.00 251.70,391.04 251.70,391.04
             251.70,391.04 250.00,379.00 250.00,379.00
             250.00,379.00 250.00,338.00 250.00,338.00 Z
           M 110.00,89.00
           C 111.77,85.33 117.46,73.57 122.00,73.82
             125.35,74.01 126.48,77.61 127.88,80.01
             129.94,83.56 133.72,87.76 136.41,91.00
             136.41,91.00 157.08,116.00 157.08,116.00
             160.51,120.11 170.37,131.60 171.97,136.00
             173.23,139.47 173.00,144.29 173.00,148.00
             173.00,148.00 169.00,147.00 169.00,147.00
             169.00,147.00 172.86,153.21 172.86,153.21
             172.86,153.21 172.86,185.00 172.86,185.00
             152.12,185.00 160.50,186.54 149.00,188.00
             149.00,188.00 149.00,149.00 149.00,149.00
             149.00,149.00 147.00,138.00 147.00,138.00
             147.00,138.00 152.00,138.00 152.00,138.00
             151.05,131.23 147.15,128.15 143.00,123.00
             143.00,123.00 123.39,99.00 123.39,99.00
             119.03,93.64 117.23,89.59 110.00,89.00 Z
           M 332.00,77.00
           C 334.33,73.52 336.06,74.03 340.00,74.00
             340.00,74.00 382.00,74.00 382.00,74.00
             384.02,74.00 387.10,73.88 388.96,74.60
             391.84,75.70 399.83,83.83 400.04,87.01
             400.17,89.10 399.08,90.47 397.84,92.00
             392.76,98.23 384.85,104.45 379.00,110.04
             379.00,110.04 351.00,137.91 351.00,137.91
             345.26,143.26 336.10,150.77 331.63,157.00
             331.63,157.00 320.75,178.00 320.75,178.00
             320.75,178.00 303.75,211.00 303.75,211.00
             303.75,211.00 291.00,237.42 291.00,237.42
             291.00,237.42 291.00,246.00 291.00,246.00
             291.00,246.00 291.00,392.00 291.00,392.00
             284.46,392.91 281.91,396.16 277.00,400.25
             277.00,400.25 256.04,417.00 256.04,417.00
             256.04,417.00 256.04,401.00 256.04,401.00
             256.04,401.00 257.00,389.00 257.00,389.00
             257.00,389.00 255.00,367.00 255.00,367.00
             255.00,367.00 255.00,338.00 255.00,338.00
             255.00,338.00 250.00,338.00 250.00,338.00
             250.00,338.00 250.00,300.00 250.00,300.00
             249.97,293.20 247.40,284.56 245.25,278.00
             236.00,249.77 209.53,216.14 179.00,210.47
             173.95,209.53 167.57,210.99 162.00,211.00
             149.71,211.02 140.74,214.33 130.00,220.00
             132.88,213.92 141.06,206.19 147.00,203.00
             147.00,203.00 147.00,207.00 147.00,207.00
             147.00,207.00 152.00,207.00 152.00,207.00
             152.00,207.00 152.00,202.00 152.00,202.00
             152.00,202.00 149.00,201.00 149.00,201.00
             149.00,201.00 156.00,199.00 156.00,199.00
             156.00,199.00 156.00,204.00 156.00,204.00
             156.00,204.00 162.00,204.00 162.00,204.00
             162.00,204.00 162.00,198.00 162.00,198.00
             162.00,198.00 166.00,198.00 166.00,198.00
             166.00,198.00 166.00,202.00 166.00,202.00
             166.00,202.00 171.00,202.00 171.00,202.00
             171.00,202.00 171.00,197.00 171.00,197.00
             171.00,197.00 175.00,197.00 175.00,197.00
             175.00,197.00 175.00,202.00 175.00,202.00
             175.00,202.00 180.00,202.00 180.00,202.00
             180.00,202.00 180.00,196.00 180.00,196.00
             180.00,196.00 190.00,197.39 190.00,197.39
             201.18,199.80 210.22,206.23 218.96,213.26
             223.47,216.89 226.94,223.62 231.76,220.22
             236.38,216.95 232.58,211.19 229.79,208.17
             229.79,208.17 224.53,202.91 224.53,202.91
             221.44,199.19 206.57,176.10 205.00,172.00
             208.86,175.03 208.99,176.18 214.00,177.00
             213.05,168.74 202.24,156.98 197.15,150.00
             197.15,150.00 187.30,136.00 187.30,136.00
             185.53,132.49 186.38,131.24 183.74,127.00
             183.74,127.00 164.37,101.00 164.37,101.00
             164.37,101.00 151.54,84.33 151.54,84.33
             147.28,80.60 144.76,83.55 144.00,88.00
             144.00,88.00 132.00,76.00 132.00,76.00
             132.00,76.00 166.00,75.00 166.00,75.00
             166.00,75.00 190.09,76.00 190.09,76.00
             189.91,77.66 189.70,78.26 190.09,80.00
             191.07,83.31 202.97,100.95 205.67,105.00
             205.67,105.00 249.33,172.00 249.33,172.00
             249.33,172.00 263.05,193.00 263.05,193.00
             264.16,194.71 266.45,198.79 268.88,198.38
             271.27,197.97 275.32,190.19 276.57,188.00
             276.57,188.00 294.00,154.00 294.00,154.00
             294.00,154.00 294.00,158.00 294.00,158.00
             295.84,157.68 296.84,157.75 298.37,156.40
             300.43,154.57 306.19,142.17 307.58,139.00
             307.58,139.00 327.86,100.00 327.86,100.00
             331.57,93.31 337.20,84.58 338.00,77.00
             338.00,77.00 332.00,77.00 332.00,77.00 Z
           M 123.00,82.00
           C 123.00,82.00 122.00,82.00 122.00,82.00
             122.00,82.00 123.00,83.00 123.00,83.00
             123.00,83.00 123.00,82.00 123.00,82.00 Z
           M 124.00,83.00
           C 124.00,83.00 123.00,83.00 123.00,83.00
             123.00,83.00 124.00,84.00 124.00,84.00
             124.00,84.00 124.00,83.00 124.00,83.00 Z
           M 125.00,84.00
           C 125.00,84.00 124.00,84.00 124.00,84.00
             124.00,84.00 125.00,85.00 125.00,85.00
             125.00,85.00 125.00,84.00 125.00,84.00 Z
           M 126.00,85.00
           C 126.00,85.00 125.00,85.00 125.00,85.00
             125.00,85.00 126.00,86.00 126.00,86.00
             126.00,86.00 126.00,85.00 126.00,85.00 Z
           M 351.00,155.00
           C 348.14,152.11 352.44,149.37 354.58,146.96
             359.18,141.78 368.23,130.74 374.00,128.00
             374.00,128.00 375.00,145.00 375.00,145.00
             375.00,145.00 375.00,172.00 375.00,172.00
             375.00,172.00 375.00,261.00 375.00,261.00
             375.00,261.00 373.98,268.44 373.98,268.44
             373.98,268.44 367.00,272.32 367.00,272.32
             367.00,272.32 349.00,281.00 349.00,281.00
             349.00,281.00 349.00,189.00 349.00,189.00
             349.00,189.00 349.00,164.00 349.00,164.00
             349.02,160.82 348.54,159.20 351.00,157.00
             351.00,157.00 351.00,155.00 351.00,155.00 Z
           M 336.00,148.00
           C 336.00,148.00 335.00,148.00 335.00,148.00
             335.00,148.00 336.00,149.00 336.00,149.00
             336.00,149.00 336.00,148.00 336.00,148.00 Z
           M 153.00,178.00
           C 153.00,178.00 152.00,178.00 152.00,178.00
             152.00,178.00 153.00,179.00 153.00,179.00
             153.00,179.00 153.00,178.00 153.00,178.00 Z
           M 152.00,179.00
           C 152.00,179.00 151.00,179.00 151.00,179.00
             151.00,179.00 152.00,180.00 152.00,180.00
             152.00,180.00 152.00,179.00 152.00,179.00 Z
           M 151.00,180.00
           C 151.00,180.00 150.00,180.00 150.00,180.00
             150.00,180.00 151.00,181.00 151.00,181.00
             151.00,181.00 151.00,180.00 151.00,180.00 Z
           M 174.00,283.00
           C 166.34,282.56 162.20,278.48 156.00,274.33
             153.93,272.95 150.28,270.78 149.02,268.68
             147.99,266.95 148.04,264.94 148.00,263.00
             148.00,263.00 148.00,235.00 148.00,235.00
             148.01,232.30 147.68,228.64 149.60,226.51
             152.56,223.22 169.06,221.52 172.43,224.17
             174.15,225.53 173.96,228.04 174.00,230.00
             174.00,230.00 174.00,256.00 174.00,256.00
             174.00,256.00 174.00,283.00 174.00,283.00 Z
           M 155.00,225.00
           C 155.00,225.00 154.00,225.00 154.00,225.00
             154.00,225.00 155.00,226.00 155.00,226.00
             155.00,226.00 155.00,225.00 155.00,225.00 Z
           M 237.00,238.00
           C 237.00,238.00 236.00,238.00 236.00,238.00
             236.00,238.00 237.00,239.00 237.00,239.00
             237.00,239.00 237.00,238.00 237.00,238.00 Z
           M 98.00,92.00
           C 98.00,92.00 108.60,75.00 108.60,75.00
             108.60,75.00 114.38,67.17 114.38,67.17
             114.38,67.17 122.00,66.00 122.00,66.00
             122.00,66.00 183.00,66.00 183.00,66.00
             183.00,66.00 190.82,67.02 190.82,67.02
             190.82,67.02 198.42,77.00 198.42,77.00
             198.42,77.00 212.12,99.00 212.12,99.00
             212.12,99.00 244.31,149.00 244.31,149.00
             244.31,149.00 269.00,188.00 269.00,188.00
             270.53,179.83 277.99,167.05 281.69,159.00
             281.69,159.00 313.31,93.00 313.31,93.00
             313.31,93.00 322.25,75.00 322.25,75.00
             323.41,72.67 325.22,68.41 327.39,67.02
             329.34,65.78 332.73,66.00 335.00,66.00
             335.00,66.00 389.00,66.00 389.00,66.00
             400.57,66.02 401.01,69.13 408.24,78.00
             410.60,80.89 413.51,83.95 412.22,88.00
             411.33,90.77 407.41,94.69 405.42,97.00
             405.42,97.00 383.60,121.00 383.60,121.00
             381.50,124.34 382.02,128.22 382.00,132.00
             382.00,132.00 381.00,147.00 381.00,147.00
             381.00,147.00 381.00,276.00 381.00,276.00
             381.00,278.24 381.24,281.56 380.01,283.47
             378.63,285.61 370.56,290.22 368.00,291.81
             358.40,297.77 353.65,302.23 343.00,307.00
             342.24,304.71 341.53,302.43 341.38,300.00
             341.38,300.00 342.00,272.00 342.00,272.00
             342.00,272.00 342.00,202.00 342.00,202.00
             342.00,190.74 343.00,172.23 340.00,162.00
             340.00,162.00 328.31,185.00 328.31,185.00
             328.31,185.00 313.22,214.00 313.22,214.00
             310.75,218.68 302.31,232.76 301.99,237.17
             301.99,237.17 301.99,244.00 301.99,244.00
             301.99,244.00 301.99,396.00 301.99,396.00
             302.00,397.95 302.12,401.05 301.40,402.83
             299.64,407.15 289.03,414.17 285.00,417.15
             285.00,417.15 263.00,435.42 263.00,435.42
             259.68,438.25 251.60,445.84 248.00,447.09
             240.77,449.62 239.08,443.66 239.00,438.00
             239.00,438.00 239.00,423.00 239.00,423.00
             239.00,423.00 238.00,407.00 238.00,407.00
             238.00,407.00 238.00,335.00 238.00,335.00
             238.00,335.00 238.00,302.00 238.00,302.00
             237.97,285.32 226.72,261.40 215.82,249.00
             215.82,249.00 202.42,236.63 202.42,236.63
             199.31,233.71 196.75,230.11 193.00,227.93
             193.00,227.93 181.00,223.00 181.00,223.00
             181.00,223.00 181.00,258.00 181.00,258.00
             181.00,258.00 182.00,273.00 182.00,273.00
             182.00,273.00 182.00,305.00 182.00,305.00
             173.46,303.26 160.42,295.45 152.00,291.25
             149.11,289.80 142.58,286.95 140.74,284.61
             138.82,282.17 139.02,278.93 139.00,276.00
             139.00,276.00 139.00,230.00 139.00,230.00
             124.78,238.23 123.22,243.08 117.00,247.57
             113.54,250.07 109.55,250.56 106.74,246.77
             103.54,242.45 107.92,234.39 109.86,230.00
             113.94,220.78 118.41,211.55 125.27,204.09
             125.27,204.09 139.99,189.83 139.99,189.83
             141.95,186.26 140.01,175.82 139.99,171.00
             139.99,171.00 139.99,151.00 139.99,151.00
             139.98,139.77 135.45,137.39 128.41,129.00
             119.41,118.27 105.28,103.47 98.00,92.00 Z
           M 174.00,186.00
           C 174.00,186.00 173.04,177.00 173.04,177.00
             173.04,177.00 173.04,160.00 173.04,160.00
             173.01,152.00 175.47,139.41 171.69,132.00
             171.69,132.00 159.08,116.00 159.08,116.00
             159.08,116.00 136.25,88.00 136.25,88.00
             133.56,84.74 126.55,74.77 123.00,73.83
             121.76,73.26 120.65,73.35 119.53,73.83
             117.32,75.32 110.22,87.37 109.78,90.00
             108.97,94.74 116.64,102.34 119.61,106.00
             119.61,106.00 140.00,131.00 140.00,131.00
             145.01,137.21 148.86,139.68 149.00,148.00
             149.00,148.00 149.00,188.00 149.00,188.00
             149.00,188.00 174.00,186.00 174.00,186.00 Z
           M 250.00,428.00
           C 260.95,422.87 269.76,414.60 279.00,406.92
             287.10,400.19 290.98,399.73 290.98,389.00
             290.98,389.00 290.98,246.00 290.98,246.00
             290.98,246.00 290.98,241.09 290.98,241.09
             290.83,235.06 293.12,232.28 295.75,227.00
             295.75,227.00 307.75,203.00 307.75,203.00
             307.75,203.00 322.75,174.00 322.75,174.00
             325.01,169.48 329.62,159.53 332.39,156.00
             337.64,149.30 345.85,142.84 352.00,136.96
             352.00,136.96 378.00,111.01 378.00,111.01
             378.00,111.01 395.98,94.00 395.98,94.00
             397.52,92.38 399.68,90.32 400.01,88.00
             400.43,85.03 397.82,82.65 395.98,80.72
             390.10,74.53 390.56,74.02 382.00,74.00
             382.00,74.00 339.00,74.00 339.00,74.00
             337.05,74.04 335.10,74.00 333.33,74.93
             328.96,77.22 322.71,92.10 320.58,97.00
             320.58,97.00 305.26,129.00 305.26,129.00
             305.26,129.00 285.25,171.00 285.25,171.00
             285.25,171.00 274.20,192.00 274.20,192.00
             273.18,193.70 270.94,198.03 268.88,198.38
             266.45,198.79 264.16,194.71 263.05,193.00
             263.05,193.00 249.33,172.00 249.33,172.00
             249.33,172.00 205.67,105.00 205.67,105.00
             202.97,100.95 191.07,83.31 190.09,80.00
             189.70,78.26 189.91,77.66 190.09,76.00
             183.28,74.09 156.75,75.00 148.00,75.00
             142.83,75.00 136.33,73.81 132.00,77.00
             142.88,86.38 156.44,105.06 165.15,117.00
             165.15,117.00 194.98,158.00 194.98,158.00
             194.98,158.00 212.00,184.00 212.00,184.00
             212.00,184.00 223.78,201.96 223.78,201.96
             223.78,201.96 231.56,210.04 231.56,210.04
             233.58,213.05 235.60,217.51 231.56,220.22
             228.02,222.86 225.45,219.66 223.14,217.14
             219.32,212.98 209.03,205.24 204.00,202.52
             201.79,201.32 191.39,197.59 189.00,197.21
             180.38,195.81 158.95,197.11 151.00,200.46
             143.91,203.45 133.25,213.13 130.00,220.00
             142.59,213.35 149.78,211.16 164.00,210.84
             169.75,210.93 174.21,209.37 180.00,210.84
             208.13,217.03 228.01,241.17 240.08,266.00
             244.91,275.93 249.98,289.94 250.00,301.00
             250.00,301.00 250.00,428.00 250.00,428.00 Z
           M 376.00,128.00
           C 376.00,128.00 371.01,129.02 371.01,129.02
             371.01,129.02 346.00,155.00 346.00,155.00
             346.00,155.00 346.00,160.00 346.00,160.00
             346.00,160.00 349.00,160.00 349.00,160.00
             349.00,160.00 349.00,290.00 349.00,290.00
             349.00,290.00 366.00,280.15 366.00,280.15
             366.00,280.15 373.98,274.61 373.98,274.61
             373.98,274.61 375.00,267.00 375.00,267.00
             375.00,267.00 375.00,142.00 375.00,142.00
             375.00,142.00 376.00,128.00 376.00,128.00 Z
           M 181.97,154.00
           C 181.97,154.00 181.97,166.00 181.97,166.00
             181.97,166.00 181.97,183.00 181.97,183.00
             181.97,183.00 185.00,184.00 185.00,184.00
             185.00,184.00 181.00,185.00 181.00,185.00
             198.94,185.00 192.23,187.93 204.00,189.00
             204.00,189.00 181.97,154.00 181.97,154.00 Z
           M 205.00,189.00
           C 205.00,189.00 204.00,189.00 204.00,189.00
             204.00,189.00 205.00,190.00 205.00,190.00
             205.00,190.00 205.00,189.00 205.00,189.00 Z
           M 130.00,220.00
           C 130.00,220.00 129.00,220.00 129.00,220.00
             129.00,220.00 130.00,221.00 130.00,221.00
             130.00,221.00 130.00,220.00 130.00,220.00 Z
           M 129.00,221.00
           C 129.00,221.00 128.00,221.00 128.00,221.00
             128.00,221.00 129.00,222.00 129.00,222.00
             129.00,222.00 129.00,221.00 129.00,221.00 Z
           M 174.00,223.00
           C 168.32,223.00 152.26,221.39 149.02,226.39
             147.78,228.31 148.00,231.76 148.00,234.00
             148.00,234.00 148.00,269.00 148.00,269.00
             148.01,271.08 147.87,273.80 149.02,275.61
             150.43,277.82 154.68,279.52 157.00,280.92
             163.71,284.98 165.67,288.52 174.00,289.00
             174.00,289.00 174.00,223.00 174.00,223.00 Z" />
</svg>
